{"title":"Ulzanas.Raid.1972.1080i.HDTV.AC3.MPEG.ts","uid":12549410,"size":9058039092,"categoryP":"video","categoryS":"hd___movies","magnet":"?xt=urn:btih:ed4a147f98ae5e2422d2f4852307783f9f4d2657&amp;dn=Ulzanas.Raid.1972.1080i.HDTV.AC3.MPEG.ts&amp;tr=udp%3A%2F%2Ftracker.leechers-paradise.org%3A6969&amp;tr=udp%3A%2F%2Fzer0day.ch%3A1337&amp;tr=udp%3A%2F%2Fopen.demonii.com%3A1337&amp;tr=udp%3A%2F%2Ftracker.coppersurfer.tk%3A6969&amp;tr=udp%3A%2F%2Fexodus.desync.com%3A6969","seeders":0,"leechers":1,"uploader":"Lobezno","files":1,"time":1444519854,"description":"\nFormat                                   : MPEG-TS\r\nFile size                                : 8.44 GiB\r\nDuration                                 : 1h 37mn\r\nOverall bit rate mode                    : Variable\r\nOverall bit rate                         : 12.3 Mbps\r\nMaximum Overall bit rate                 : 35.5 Mbps\r\n\r\nVideo\r\nID                                       : 4113 (0x1011)\r\nMenu ID                                  : 1 (0x1)\r\nFormat                                   : AVC\r\nFormat/Info                              : Advanced Video Codec\r\nFormat profile                           :   \r\nFormat settings, CABAC                   : Yes\r\nFormat settings, ReFrames                : 4 frames\r\nCodec ID                                 : 27\r\nDuration                                 : 1h 37mn\r\nBit rate mode                            : Variable\r\nBit rate                                 : 11.3 Mbps\r\nMaximum bit rate                         : 40.0 Mbps\r\nWidth                                    : 1 920 pixels\r\nHeight                                   : 1 080 pixels\r\nDisplay aspect ratio                     : 16:9\r\nFrame rate                               : 25.000 fps\r\nStandard                                 : Component\r\nColor space                              : YUV\r\nChroma subsampling                       : 4:2:0\r\nBit depth                                : 8 bits\r\nScan type                                : MBAFF\r\nBits/(Pixel*Frame)                       : 0.219\r\nStream size                              : 7.75 GiB (92%)\r\nColor range                              : Limited\r\nColor primaries                          : BT.709\r\nTransfer characteristics                 : BT.709\r\nMatrix coefficients                      : BT.709\r\n\r\nAudio\r\nID                                       : 4352 (0x1100)\r\nMenu ID                                  : 1 (0x1)\r\nFormat                                   : AC-3\r\nFormat/Info                              : Audio Coding 3\r\nMode extension                           : CM (complete main)\r\nFormat settings, Endianness              : Big\r\nCodec ID                                 : 129\r\nDuration                                 : 1h 37mn\r\nBit rate mode                            : Constant\r\nBit rate                                 : 384 Kbps\r\nChannel(s)                               : 6 channels\r\nChannel positions                        : Front: L C R, Side: L R, LFE\r\nSampling rate                            : 48.0 KHz\r\nCompression mode                         : Lossy\r\nDelay relative to video                  : 49ms\r\nStream size                              : 269 MiB (3%)\r\nLanguage                                 : French","torrent":{"xt":"urn:btih:ed4a147f98ae5e2422d2f4852307783f9f4d2657","amp;dn":"Ulzanas.Raid.1972.1080i.HDTV.AC3.MPEG.ts","amp;tr":["udp%3A%2F%2Ftracker.leechers-paradise.org%3A6969","udp%3A%2F%2Fzer0day.ch%3A1337","udp%3A%2F%2Fopen.demonii.com%3A1337","udp%3A%2F%2Ftracker.coppersurfer.tk%3A6969","udp%3A%2F%2Fexodus.desync.com%3A6969"],"infoHash":"ed4a147f98ae5e2422d2f4852307783f9f4d2657","infoHashBuffer":{"type":"Buffer","data":[237,74,20,127,152,174,94,36,34,210,244,133,35,7,120,63,159,77,38,87]},"announce":[],"urlList":[]}}